<!-- File: src/assets/icons/javascript.svg -->
<!-- JavaScript logo icon -->
<svg width="24" height="24" viewBox="0 0 24 24" fill="none" xmlns="http://www.w3.org/2000/svg">
  <rect x="2" y="2" width="20" height="20" rx="2" fill="#F7DF1E"/>
  <path d="M12.5 17.5c-1.5 0-2.5-0.8-2.5-2.2v-4.8h1.5v4.7c0 0.7 0.4 1 1 1s1-0.3 1-1v-4.7h1.5v4.8c0 1.4-1 2.2-2.5 2.2z" fill="#000"/>
  <path d="M16.5 17.4c-1.4 0-2.3-0.7-2.3-1.9h1.4c0 0.5 0.4 0.8 0.9 0.8 0.4 0 0.7-0.2 0.7-0.5 0-0.4-0.3-0.5-0.9-0.7l-0.6-0.3c-0.9-0.4-1.5-0.9-1.5-1.9 0-1.1 0.8-1.9 2.1-1.9 0.9 0 1.6 0.3 2 1.1l-1.1 0.7c-0.2-0.4-0.5-0.5-0.9-0.5s-0.6 0.2-0.6 0.5c0 0.3 0.2 0.4 0.7 0.6l0.6 0.3c1.1 0.5 1.7 1 1.7 2.1 0 1.2-0.9 2-2.2 2z" fill="#000"/>
</svg>
