<!-- File: src/assets/icons/settings.svg -->
<!-- Configuration/settings icon -->
<svg width="24" height="24" viewBox="0 0 24 24" fill="none" xmlns="http://www.w3.org/2000/svg">
  <circle cx="12" cy="12" r="3" stroke="#6B7280" stroke-width="2"/>
  <path d="M12 1.5c-5.79 0-10.5 4.71-10.5 10.5s4.71 10.5 10.5 10.5 10.5-4.71 10.5-10.5S17.79 1.5 12 1.5zM19.5 10.5h-3c-.28 0-.5-.22-.5-.5s.22-.5.5-.5h3c.28 0 .5.22.5.5s-.22.5-.5.5zM8 10.5H4.5c-.28 0-.5-.22-.5-.5s.22-.5.5-.5H8c.28 0 .5.22.5.5s-.22.5-.5.5zM12 8c-.28 0-.5-.22-.5-.5V4.5c0-.28.22-.5.5-.5s.5.22.5.5V7.5c0 .28-.22.5-.5.5zM12 20c-.28 0-.5-.22-.5-.5V16c0-.28.22-.5.5-.5s.5.22.5.5v3.5c0 .28-.22.5-.5.5z" fill="#6B7280"/>
</svg>